<?xml version="1.0" standalone="no"?>
<!DOCTYPE svg PUBLIC "-//W3C//DTD SVG 20010904//EN"
 "http://www.w3.org/TR/2001/REC-SVG-20010904/DTD/svg10.dtd">
<svg version="1.0" xmlns="http://www.w3.org/2000/svg"
 width="500.000000pt" height="500.000000pt" viewBox="0 0 500.000000 500.000000"
 preserveAspectRatio="xMidYMid meet">
<metadata>
Created by potrace 1.11, written by Peter Selinger 2001-2013
</metadata>
<g transform="translate(0.000000,500.000000) scale(0.100000,-0.100000)"
fill="#000000" stroke="none">
<path d="M3199 4996 c-2 -2 -714 -6 -1582 -7 -867 -1 -1577 -6 -1577 -11 0 -4
7 -5 15 -2 8 4 15 1 15 -5 0 -6 -8 -11 -17 -11 -9 0 -13 -3 -9 -7 4 -5 69 -11
144 -14 l137 -6 -125 1 -125 1 2 -1085 c1 -597 2 -1707 3 -2467 l0 -1383 2460
0 2460 0 -2 2497 -3 2498 -896 3 c-492 1 -897 0 -900 -2z m-2976 -33 c-13 -2
-33 -2 -45 0 -13 2 -3 4 22 4 25 0 35 -2 23 -4z m2404 -988 c358 -40 639 -138
855 -299 47 -35 89 -61 93 -58 4 4 5 2 3 -4 -2 -5 19 -32 45 -60 164 -167 286
-402 332 -640 41 -209 39 -510 -5 -692 -24 -101 -84 -263 -116 -314 -13 -21
-22 -38 -19 -38 3 0 1 -6 -5 -12 -6 -7 -38 -51 -72 -98 -213 -294 -543 -491
-963 -574 -180 -35 -282 -38 -1550 -36 l-150 0 0 1415 0 1415 142 0 c78 0 144
3 146 8 3 4 259 6 569 5 418 -2 597 -7 695 -18z"/>
<path d="M2000 2576 l0 -836 228 0 c251 0 348 9 497 45 153 38 271 101 373
201 57 55 82 86 77 94 -5 8 -4 11 3 6 17 -10 109 188 128 279 23 113 24 327 1
425 -60 253 -239 444 -509 544 -144 54 -242 67 -530 73 l-268 5 0 -836z"/>
<path d="M15 4960 c-3 -5 -1 -10 4 -10 6 0 11 5 11 10 0 6 -2 10 -4 10 -3 0
-8 -4 -11 -10z"/>
<path d="M16 4925 c-3 -8 -4 -1118 -3 -2467 2 -2122 3 -2267 7 -1073 l5 1380
3 -1382 c1 -914 5 -1383 12 -1383 7 0 11 469 12 1383 l3 1382 5 -1380 c4
-1193 5 -1047 7 1075 1 1454 -1 2461 -7 2470 -5 8 -13 11 -17 6 -4 -4 -10
-191 -13 -414 l-6 -407 1 413 c0 226 -1 412 -1 412 -1 0 -4 -7 -8 -15z m41
-607 c-1 -112 -2 -21 -2 202 0 223 1 314 2 203 2 -112 2 -294 0 -405z m-30
-1181 c-1 -166 -2 -30 -2 303 0 333 1 469 2 302 2 -166 2 -438 0 -605z m30 0
c-1 -166 -2 -30 -2 303 0 333 1 469 2 302 2 -166 2 -438 0 -605z"/>
</g>
</svg>
